
<svg version="1.0" xmlns="http://www.w3.org/2000/svg"
 width="951.000000px" height="960.000000px" viewBox="0 0 951.000000 960.000000"
 preserveAspectRatio="xMidYMid meet">

<g transform="translate(0.000000,960.000000) scale(0.100000,-0.100000)"
fill="#000000" stroke="none">
<path d="M5394 7135 c-466 -68 -895 -314 -1193 -686 -147 -181 -249 -369 -322
-591 l-43 -128 -899 0 -900 0 6 -107 c11 -201 67 -334 189 -447 76 -72 150
-114 261 -150 179 -58 69 -56 2664 -56 l2380 0 6 53 c44 375 -18 747 -178
1072 -277 563 -806 949 -1426 1039 -130 19 -415 19 -545 1z m549 -779 c303
-78 552 -268 704 -535 24 -42 43 -79 43 -83 0 -5 -459 -8 -1020 -8 -561 0
-1020 3 -1020 8 0 16 87 160 132 218 136 176 344 320 555 384 133 40 209 50
363 46 114 -3 166 -9 243 -30z"/>
<path d="M3850 4770 c0 -10 16 -65 36 -122 262 -757 977 -1268 1776 -1268 505
0 948 178 1321 529 82 77 230 258 224 274 -3 10 -317 162 -608 295 l-87 40
-43 -45 c-59 -60 -143 -124 -231 -176 -375 -221 -843 -205 -1206 42 -132 90
-268 240 -347 385 l-37 67 -399 -2 c-374 -2 -399 -3 -399 -19z"/>
<path d="M4823 3032 c-160 -57 -239 -218 -186 -383 23 -72 107 -158 177 -182
62 -21 149 -22 209 -1 60 20 131 84 165 148 23 44 27 63 27 136 0 93 -16 136
-76 204 -70 80 -212 115 -316 78z"/>
<path d="M6215 3037 c-62 -21 -97 -42 -136 -84 -74 -78 -100 -174 -74 -275 48
-188 247 -282 420 -199 74 35 106 68 141 146 88 191 -43 406 -255 421 -31 2
-74 -2 -96 -9z"/>
</g>
</svg>
